<mxfile host="65bd71144e">
    <diagram id="ncjPQc6a27ouzErKtmNv" name="Page-1">
        <mxGraphModel dx="1382" dy="917" grid="1" gridSize="10" guides="1" tooltips="1" connect="1" arrows="1" fold="1" page="1" pageScale="1" pageWidth="1200" pageHeight="1920" math="0" shadow="0">
            <root>
                <mxCell id="0"/>
                <mxCell id="1" parent="0"/>
                <mxCell id="5" style="edgeStyle=none;html=1;exitX=1;exitY=0.5;exitDx=0;exitDy=0;entryX=0;entryY=0.5;entryDx=0;entryDy=0;fontSize=14;" parent="1" source="2" target="4" edge="1">
                    <mxGeometry relative="1" as="geometry"/>
                </mxCell>
                <mxCell id="2" value="&lt;font style=&quot;font-size: 14px&quot;&gt;Start&lt;/font&gt;" style="rounded=1;whiteSpace=wrap;html=1;" parent="1" vertex="1">
                    <mxGeometry x="60" y="197" width="90" height="40" as="geometry"/>
                </mxCell>
                <mxCell id="9" style="edgeStyle=none;html=1;entryX=0;entryY=0.5;entryDx=0;entryDy=0;fontSize=14;strokeColor=#FF1212;" parent="1" source="4" edge="1">
                    <mxGeometry relative="1" as="geometry">
                        <mxPoint x="500" y="217" as="targetPoint"/>
                    </mxGeometry>
                </mxCell>
                <mxCell id="26" style="edgeStyle=orthogonalEdgeStyle;html=1;exitX=0.5;exitY=1;exitDx=0;exitDy=0;fontSize=14;fontColor=#000000;strokeColor=#009900;" parent="1" source="4" edge="1">
                    <mxGeometry relative="1" as="geometry">
                        <mxPoint x="300" y="396" as="targetPoint"/>
                    </mxGeometry>
                </mxCell>
                <mxCell id="4" value="Do you need in-memory store?" style="rounded=0;whiteSpace=wrap;html=1;fontSize=14;strokeColor=none;" parent="1" vertex="1">
                    <mxGeometry x="240" y="187" width="120" height="60" as="geometry"/>
                </mxCell>
                <mxCell id="10" value="&lt;font color=&quot;#ff1212&quot;&gt;No&lt;/font&gt;" style="text;html=1;strokeColor=none;fillColor=none;align=center;verticalAlign=middle;whiteSpace=wrap;rounded=0;fontSize=14;" parent="1" vertex="1">
                    <mxGeometry x="400" y="187" width="60" height="30" as="geometry"/>
                </mxCell>
                <mxCell id="27" value="&lt;font color=&quot;#009900&quot;&gt;Yes&lt;/font&gt;" style="text;html=1;strokeColor=none;fillColor=none;align=center;verticalAlign=middle;whiteSpace=wrap;rounded=0;fontSize=14;" parent="1" vertex="1">
                    <mxGeometry x="240" y="300" width="60" height="30" as="geometry"/>
                </mxCell>
                <mxCell id="114" value="" style="editableCssRules=.*;shape=image;verticalLabelPosition=bottom;labelBackgroundColor=#ffffff;verticalAlign=top;aspect=fixed;imageAspect=0;image=data:image/svg+xml,PHN2ZyB4bWxucz0iaHR0cDovL3d3dy53My5vcmcvMjAwMC9zdmciIHhtbG5zOnY9Imh0dHBzOi8vdmVjdGEuaW8vbmFubyIgd2lkdGg9IjIwIiBoZWlnaHQ9IjIwIiB2aWV3Qm94PSIwIDAgMjAgMjAiPiYjeGE7CTxzdHlsZSB0eXBlPSJ0ZXh0L2NzcyI+JiN4YTsJLnN0MHtmaWxsOiM0Mjg1ZjQ7fSYjeGE7CS5zdDF7ZmlsbDojNjY5ZGY2O30mI3hhOwkuc3Qye2ZpbGw6I2FlY2JmYTt9JiN4YTsJPC9zdHlsZT4mI3hhOwk8cGF0aCBjbGFzcz0ic3QxIiBkPSJNMCAxLjk0aDMuMzN2Mi41OEgwem0wIDQuNTFoMy4zM3YyLjU4SDB6bTAgNC41MmgzLjMzdjIuNThIMHptMCA0LjUxaDMuMzN2Mi41OEgwek0xNi42NyAxLjk0SDIwdjIuNThoLTMuMzN6bTAgNC41MUgyMHYyLjU4aC0zLjMzem0wIDQuNTJIMjB2Mi41OGgtMy4zM3ptMCA0LjUxSDIwdjIuNThoLTMuMzN6Ii8+JiN4YTsJPHBhdGggY2xhc3M9InN0MCIgZD0iTTE2LjY3IDEuOTRsMi42NiAyLjU4aC0yLjY2em0wIDQuNTFsMi42NiAyLjU4aC0yLjY2em0wIDQuNTJsMi42NiAyLjU4aC0yLjY2em0wIDQuNTFsMi42NiAyLjU5aC0yLjY2eiIgZmlsbC1ydWxlPSJldmVub2RkIi8+JiN4YTsJPHBhdGggY2xhc3M9InN0MiIgZD0iTTMuMzMgMjBoMTMuMzRWMEgzLjMzem02LTlINmw0LjY3LTcuNzRWOUgxNGwtNC42NyA3Ljc0eiIgZmlsbC1ydWxlPSJldmVub2RkIi8+JiN4YTsJPHBhdGggY2xhc3M9InN0MSIgZD0iTTE0IDkuMDNoLTMuMzNWMGg2djIwSDkuMzN2LTMuMjN6IiBmaWxsLXJ1bGU9ImV2ZW5vZGQiLz4mI3hhOzwvc3ZnPg==;" vertex="1" parent="1">
                    <mxGeometry x="270" y="410" width="60" height="60" as="geometry"/>
                </mxCell>
                <mxCell id="115" value="Memorystore" style="text;html=1;strokeColor=none;fillColor=none;align=center;verticalAlign=middle;whiteSpace=wrap;rounded=0;" vertex="1" parent="1">
                    <mxGeometry x="270" y="480" width="60" height="30" as="geometry"/>
                </mxCell>
                <mxCell id="118" style="edgeStyle=none;html=1;exitX=0.5;exitY=1;exitDx=0;exitDy=0;strokeColor=#009900;" edge="1" parent="1" source="116" target="117">
                    <mxGeometry relative="1" as="geometry"/>
                </mxCell>
                <mxCell id="116" value="Is your data relational?" style="rounded=0;whiteSpace=wrap;html=1;fontSize=14;strokeColor=none;" vertex="1" parent="1">
                    <mxGeometry x="510" y="187" width="120" height="60" as="geometry"/>
                </mxCell>
                <mxCell id="135" style="edgeStyle=none;html=1;exitX=1;exitY=0.5;exitDx=0;exitDy=0;entryX=0;entryY=0.5;entryDx=0;entryDy=0;strokeColor=#009900;" edge="1" parent="1" source="117" target="134">
                    <mxGeometry relative="1" as="geometry"/>
                </mxCell>
                <mxCell id="138" style="edgeStyle=none;html=1;exitX=0.5;exitY=1;exitDx=0;exitDy=0;strokeColor=#FF1212;" edge="1" parent="1" source="117">
                    <mxGeometry relative="1" as="geometry">
                        <mxPoint x="570" y="680" as="targetPoint"/>
                    </mxGeometry>
                </mxCell>
                <mxCell id="117" value="Is your workload analytics" style="rounded=0;whiteSpace=wrap;html=1;fontSize=14;strokeColor=none;" vertex="1" parent="1">
                    <mxGeometry x="510" y="530" width="120" height="60" as="geometry"/>
                </mxCell>
                <mxCell id="119" value="&lt;font color=&quot;#009900&quot;&gt;Yes&lt;/font&gt;" style="text;html=1;strokeColor=none;fillColor=none;align=center;verticalAlign=middle;whiteSpace=wrap;rounded=0;fontSize=14;" vertex="1" parent="1">
                    <mxGeometry x="510" y="370" width="60" height="30" as="geometry"/>
                </mxCell>
                <mxCell id="120" style="edgeStyle=none;html=1;entryX=0;entryY=0.5;entryDx=0;entryDy=0;fontSize=14;strokeColor=#FF1212;" edge="1" parent="1">
                    <mxGeometry relative="1" as="geometry">
                        <mxPoint x="640" y="217" as="sourcePoint"/>
                        <mxPoint x="780" y="217" as="targetPoint"/>
                    </mxGeometry>
                </mxCell>
                <mxCell id="121" value="&lt;font color=&quot;#ff1212&quot;&gt;No&lt;/font&gt;" style="text;html=1;strokeColor=none;fillColor=none;align=center;verticalAlign=middle;whiteSpace=wrap;rounded=0;fontSize=14;" vertex="1" parent="1">
                    <mxGeometry x="680" y="187" width="60" height="30" as="geometry"/>
                </mxCell>
                <mxCell id="122" value="Do you need a document database?" style="rounded=0;whiteSpace=wrap;html=1;fontSize=14;strokeColor=none;" vertex="1" parent="1">
                    <mxGeometry x="790" y="187" width="120" height="60" as="geometry"/>
                </mxCell>
                <mxCell id="123" style="edgeStyle=none;html=1;entryX=0;entryY=0.5;entryDx=0;entryDy=0;fontSize=14;strokeColor=#FF1212;" edge="1" parent="1">
                    <mxGeometry relative="1" as="geometry">
                        <mxPoint x="910" y="217" as="sourcePoint"/>
                        <mxPoint x="1050" y="217" as="targetPoint"/>
                    </mxGeometry>
                </mxCell>
                <mxCell id="124" value="&lt;font color=&quot;#ff1212&quot;&gt;No&lt;/font&gt;" style="text;html=1;strokeColor=none;fillColor=none;align=center;verticalAlign=middle;whiteSpace=wrap;rounded=0;fontSize=14;" vertex="1" parent="1">
                    <mxGeometry x="950" y="187" width="60" height="30" as="geometry"/>
                </mxCell>
                <mxCell id="125" value="" style="editableCssRules=.*;shape=image;verticalLabelPosition=bottom;labelBackgroundColor=#ffffff;verticalAlign=top;aspect=fixed;imageAspect=0;image=data:image/svg+xml,PHN2ZyB4bWxucz0iaHR0cDovL3d3dy53My5vcmcvMjAwMC9zdmciIHhtbG5zOnY9Imh0dHBzOi8vdmVjdGEuaW8vbmFubyIgd2lkdGg9IjE3Ljk1Njk3Nzg0NDIzODI4IiBoZWlnaHQ9IjIwLjAwOTI1NjM2MjkxNTA0IiB2aWV3Qm94PSItMC4wMDA0MjE5NjUxMTY0MDIxMzQzIDAuMDAwMDc0Njk5NTIxMDY0NzU4MyAxNy45NTY5Nzc4NDQyMzgyOCAyMC4wMDkyNTYzNjI5MTUwNCI+JiN4YTsJPHN0eWxlPiYjeGE7CQkuc3Qwe2ZpbGw6IzY2OWRmNjt9JiN4YTsJCS5zdDF7ZmlsbDojYWVjYmZhO30mI3hhOwkJLnN0MntmaWxsOiM0Mjg1ZjQ7fSYjeGE7CTwvc3R5bGU+JiN4YTsJPGcgZmlsbC1ydWxlPSJldmVub2RkIj4mI3hhOwkJPHBhdGggZD0iTTEzLjE5NiA0LjQ0N2wtNC4yMi0yLjUxYTIuODYgMi44NiAwIDAgMS0xLjI1LTEuNzFjMCAwIC4xNi0uMzIuMzgtLjJsNS4yNSAzLjFjLjYzLjM3LjI0IDIgLjI0IDJhLjc3Ljc3IDAgMCAwLS40LS42OHoiIGNsYXNzPSJzdDAiLz4mI3hhOwkJPHBhdGggZD0iTTE0LjQ2NiAxMC42ODdhLjM1LjM1IDAgMCAxLS4xNi4zM2wtMSAuNjh2LTcuOTVjMC0uMjcuMTctLjU2LS4wNi0uN2wuOTIuNjhhLjczLjczIDAgMCAxIC4zNS42NXoiIGNsYXNzPSJzdDEiLz4mI3hhOwkJPHBhdGggZD0iTTguOTc2IDExLjU5N2EuMzYuMzYgMCAwIDEtLjItLjA2bC0zLjQ2LTIuMDZ2LjlsMy42NiAyLjE4LjI5LS41N3MtLjIyLS4zOS0uMjktLjM5em0uMiAxLjhhLjM2LjM2IDAgMCAxLS40IDBsLTMuNDYtMi4wNnYuNjZhLjQyLjQyIDAgMCAwIC4xOS4zNWwzLjI4IDJhLjM3LjM3IDAgMCAwIC4zOCAwIDIgMiAwIDAgMCAuMi0uNTJsLS4xOS0uMzl6IiBjbGFzcz0ic3QwIi8+JiN4YTsJCTxwYXRoIGQ9Ik04Ljk3NiAxMC43MjdsMy42Ni0yLjE4di0uNDNhLjM5LjM5IDAgMCAwLS4xOS0uMzRsLTMuMjgtMmEuMzcuMzcgMCAwIDAtLjM4IDBsLTMuMjggMmEuNDEuNDEgMCAwIDAtLjE5LjM0di40M3oiIGNsYXNzPSJzdDEiLz4mI3hhOwkJPHBhdGggZD0iTTguOTc2IDkuODI3bC0zLjQ3LTIuMDVhLjQxLjQxIDAgMCAwLS4xOS4zNHYuNDNsMy42NiAyLjE4LjI4LS41NnoiIGNsYXNzPSJzdDAiLz4mI3hhOwkJPGcgY2xhc3M9InN0MiI+JiN4YTsJCQk8cGF0aCBkPSJNOC45NzYgMTEuNTk3djFsMy42Ni0yLjE4di0uOWwtMy40NiAyLjAyYS42NS42NSAwIDAgMS0uMi4wNnptLjIgMS44YS4zNi4zNiAwIDAgMS0uMi4wNnYuOWEuNS41IDAgMCAwIC4yMS0uMDVsMy4yOC0yYS4zOS4zOSAwIDAgMCAuMTktLjM1di0uNjZ6Ii8+JiN4YTsJCQk8cGF0aCBkPSJNMTIuNDQ2IDcuNzc3bC0zLjQ3IDIuMDV2LjlsMy42Ni0yLjE4di0uNDNhLjM5LjM5IDAgMCAwLS4xOS0uMzR6Ii8+JiN4YTsJCTwvZz4mI3hhOwkJPHBhdGggZD0iTTQuNzU2IDE1LjUyN2w0LjE1IDIuNDdhMi43MiAyLjcyIDAgMCAxIDEuMjggMS44LjE4LjE4IDAgMCAxLS4yOC4xOGwtNS40NS0zLjIzYy0uNTMtLjMyLS4wNy0xLjg4LS4wNy0xLjg4YS43Ny43NyAwIDAgMCAuMzcuNjZ6IiBjbGFzcz0ic3QwIi8+JiN4YTsJCTxwYXRoIGQ9Ik0zLjQ4NiAxNS43Mjd2LTYuNTZhLjQxLjQxIDAgMCAxIC4xOS0uMzNsMS0uNTl2Ny45MWMwIC4yNyAwIC42OS4yMS44M2wtMS4wNi0uNjZhLjc1Ljc1IDAgMCAxLS4zNC0uNnoiIGNsYXNzPSJzdDEiLz4mI3hhOwkJPHBhdGggZD0iTTcuMTM2IDMuNDU3YS43NS43NSAwIDAgMC0uNzQgMGwtNC4yIDIuNTRhMi42MyAyLjYzIDAgMCAxLTIuMDguMjYuMjMuMjMgMCAwIDEgMC0uNGMuMTgtLjA5IDYuMzItMy43NCA2LjMyLTMuNzQuMjMtLjE0Ljc0IDEuMzkuNzQgMS4zOXoiIGNsYXNzPSJzdDAiLz4mI3hhOwkJPHBhdGggZD0iTTcuMTI2IDIuMDc3bDUuMzIgMy4xNWEuMzcuMzcgMCAwIDEgLjIuMzF2MS4xOGwtNi42Ny0zLjk2YS43NS43NSAwIDAgMC0uNzQgMGwxLjE4LS42OWEuNzEuNzEgMCAwIDEgLjczIDB6IiBjbGFzcz0ic3QxIi8+JiN4YTsJCTxwYXRoIGQ9Ik0xMC43OTYgMTYuNDg3YS43My43MyAwIDAgMCAuNzQgMGw0LjItMi40OWEyLjYzIDIuNjMgMCAwIDEgMi4xLS4yNS4yMS4yMSAwIDAgMSAwIC4zOGwtNi4zMyAzLjc1Yy0uMjIuMTQtLjc0LTEuNC0uNzQtMS40eiIgY2xhc3M9InN0MCIvPiYjeGE7CQk8cGF0aCBkPSJNNS40ODYgMTQuNzQ3YS41Ni41NiAwIDAgMS0uMTctLjMzdi0xLjE2bDYuNjYgMy45M2EuNjkuNjkgMCAwIDAgLjczIDBsLTEuMTguN2EuNy43IDAgMCAxLS43NCAweiIgY2xhc3M9InN0MSIvPiYjeGE7CQk8cGF0aCBkPSJNMy4yMzYgNy44MDdhLjc2Ljc2IDAgMCAwLS4zNy42NXY1YTIuNzUgMi43NSAwIDAgMS0uODcgMiAuMTguMTggMCAwIDEtLjMtLjEzdi03LjU2YzAtLjI4IDEuNTQgMCAxLjU0IDB6IiBjbGFzcz0ic3QwIi8+JiN4YTsJCTxwYXRoIGQ9Ik02Ljc0NiA0LjUxN2EuMzQuMzQgMCAwIDEgLjM2IDBsMSAuNTktNi4wOCAzLjU2YS43Ny43NyAwIDAgMC0uMzcuNjZ2LTEuMzlhLjcyLjcyIDAgMCAxIC4zOC0uNjR6IiBjbGFzcz0ic3QxIi8+JiN4YTsJCTxwYXRoIGQ9Ik0xNS4xNDYgMTEuNDM3di01YTIuODEgMi44MSAwIDAgMSAuODQtMmMwIDAgLjMzLS4xMS4zMS4yMXMwIDcuMzcgMCA3LjM3Yy0uMzEuMzctMS42MSAwLTEuNjEgMGEuODEuODEgMCAwIDAgLjQ2LS41OHoiIGNsYXNzPSJzdDAiLz4mI3hhOwkJPHBhdGggZD0iTTE1Ljk3NiAxMi42MDdsLTQuNzQgMi44NWEuMzUuMzUgMCAwIDEtLjM3IDBsLTEtLjU3IDYuMTEtMy42N2EuNzcuNzcgMCAwIDAgLjM3LS42NnYxLjQ0Yy0uMDIuMjMtLjM3LjYxLS4zNy42MXoiIGNsYXNzPSJzdDEiLz4mI3hhOwk8L2c+JiN4YTs8L3N2Zz4=;" vertex="1" parent="1">
                    <mxGeometry x="1070" y="182" width="63" height="70" as="geometry"/>
                </mxCell>
                <mxCell id="126" value="Cloud Bigtable" style="text;html=1;strokeColor=none;fillColor=none;align=center;verticalAlign=middle;whiteSpace=wrap;rounded=0;" vertex="1" parent="1">
                    <mxGeometry x="1070" y="252" width="87" height="30" as="geometry"/>
                </mxCell>
                <mxCell id="127" style="edgeStyle=none;html=1;exitX=0.5;exitY=1;exitDx=0;exitDy=0;strokeColor=#009900;" edge="1" parent="1">
                    <mxGeometry relative="1" as="geometry">
                        <mxPoint x="849.5" y="247" as="sourcePoint"/>
                        <mxPoint x="849.5" y="400" as="targetPoint"/>
                    </mxGeometry>
                </mxCell>
                <mxCell id="128" value="&lt;font color=&quot;#009900&quot;&gt;Yes&lt;/font&gt;" style="text;html=1;strokeColor=none;fillColor=none;align=center;verticalAlign=middle;whiteSpace=wrap;rounded=0;fontSize=14;" vertex="1" parent="1">
                    <mxGeometry x="790" y="300" width="60" height="30" as="geometry"/>
                </mxCell>
                <mxCell id="131" value="" style="editableCssRules=.*;shape=image;verticalLabelPosition=bottom;labelBackgroundColor=#ffffff;verticalAlign=top;aspect=fixed;imageAspect=0;image=data:image/svg+xml,PHN2ZyB4bWxucz0iaHR0cDovL3d3dy53My5vcmcvMjAwMC9zdmciIHhtbG5zOnY9Imh0dHBzOi8vdmVjdGEuaW8vbmFubyIgd2lkdGg9IjMyMy45MDU2MTAzOTg2NzUxNSIgaGVpZ2h0PSIzNzYuNDIyMjk0OTYzNjg0MDciIHZpZXdCb3g9Ii0wLjA5NzAwMDAwMjg2MTAyMjk1IDAuMjg3OTk5OTg3NjAyMjMzOSA4NS42OTk5OTY5NDgyNDIxOSA5OS41OTUwMDEyMjA3MDMxMiI+JiN4YTs8c3R5bGUgdHlwZT0idGV4dC9jc3MiPiYjeGE7CS5zdDB7ZmlsbDojYWVjYmZhO30mI3hhOwkuc3Qxe2ZpbGw6IzY2OWRmNjt9JiN4YTsJLnN0MntmaWxsOiM0Mjg1ZjQ7fSYjeGE7PC9zdHlsZT4mI3hhOwk8cGF0aCBjbGFzcz0ic3QwIiBkPSJNLS4wOTcgNzUuODE1VjU1Ljg3NGw0Mi44NS0yMC4xODN2MTkuMDd6bTAtMzUuNDAzVjIwLjQ3MUw0Mi43NTMuMjg4djE5LjA3eiIvPiYjeGE7CTxwYXRoIGNsYXNzPSJzdDEiIGQ9Ik04NS42MDMgNzUuODE1VjU1Ljg3NGwtNDIuODUtMjAuMTgzdjE5LjA3em0wLTM1LjQwM1YyMC40NzFMNDIuNzUzLjI4OHYxOS4wN3oiLz4mI3hhOwk8cGF0aCBjbGFzcz0ic3QyIiBkPSJNNDIuNzUzIDgwLjMxNGwxNi4yMTctNy41MjUgMjEuMDg0IDkuNzE3LTM3LjMwMSAxNy4zNzd6Ii8+JiN4YTs8L3N2Zz4=;" vertex="1" parent="1">
                    <mxGeometry x="824.5" y="410" width="51" height="60" as="geometry"/>
                </mxCell>
                <mxCell id="132" value="Firestore" style="text;html=1;strokeColor=none;fillColor=none;align=center;verticalAlign=middle;whiteSpace=wrap;rounded=0;" vertex="1" parent="1">
                    <mxGeometry x="820" y="470" width="60" height="30" as="geometry"/>
                </mxCell>
                <mxCell id="133" style="edgeStyle=none;html=1;exitX=0.5;exitY=0;exitDx=0;exitDy=0;entryX=0.25;entryY=0;entryDx=0;entryDy=0;strokeColor=#009900;" edge="1" parent="1" source="126" target="126">
                    <mxGeometry relative="1" as="geometry"/>
                </mxCell>
                <mxCell id="134" value="" style="editableCssRules=.*;shape=image;verticalLabelPosition=bottom;labelBackgroundColor=#ffffff;verticalAlign=top;aspect=fixed;imageAspect=0;image=data:image/svg+xml,PHN2ZyB4bWxucz0iaHR0cDovL3d3dy53My5vcmcvMjAwMC9zdmciIHhtbG5zOnY9Imh0dHBzOi8vdmVjdGEuaW8vbmFubyIgd2lkdGg9IjIwLjAwMTA0NTIyNzA1MDc4IiBoZWlnaHQ9IjIwLjAwMTA0NTIyNzA1MDc4IiBmaWxsLXJ1bGU9ImV2ZW5vZGQiIHZpZXdCb3g9IjAgMCAyMC4wMDEwNDUyMjcwNTA3OCAyMC4wMDEwNDUyMjcwNTA3OCI+JiN4YTsJPHN0eWxlIHR5cGU9InRleHQvY3NzIj4mI3hhOwkuc3Qwe2ZpbGw6I2FlY2JmYTt9JiN4YTsJLnN0MXtmaWxsOiM2NjlkZjY7fSYjeGE7CS5zdDJ7ZmlsbDojNDI4NWY0O30mI3hhOwk8L3N0eWxlPiYjeGE7CTxwYXRoIGNsYXNzPSJzdDAiIGQ9Ik00LjczIDguODN2Mi42M2E0LjkxIDQuOTEgMCAwIDAgMS43MSAxLjc0VjguODN6Ii8+JiN4YTsJPHBhdGggY2xhc3M9InN0MSIgZD0iTTcuODkgNi40MXY3LjUzQTcuNjIgNy42MiAwIDAgMCA5IDE0YTggOCAwIDAgMCAxIDBWNi40MXoiLz4mI3hhOwk8cGF0aCBjbGFzcz0ic3QwIiBkPSJNMTEuNjQgOS44NnYzLjI5YTUgNSAwIDAgMCAxLjctMS44MlY5Ljg2eiIvPiYjeGE7CTxwYXRoIGNsYXNzPSJzdDIiIGQ9Ik0xNS43NCAxNC4zMmwtMS40MiAxLjQyYS40Mi40MiAwIDAgMCAwIC42bDMuNTQgMy41NGEuNDIuNDIgMCAwIDAgLjU5IDBsMS40My0xLjQzYS40Mi40MiAwIDAgMCAwLS41OWwtMy41NC0zLjU0YS40Mi40MiAwIDAgMC0uNiAwIi8+JiN4YTsJPHBhdGggY2xhc3M9InN0MSIgZD0iTTkgMGE5IDkgMCAxIDAgMCAxOEE5IDkgMCAxIDAgOSAwbTAgMTUuNjlhNi42OCA2LjY4IDAgMCAxIC4wMDctMTMuMzYgNi42OCA2LjY4IDAgMCAxIDQuNzI3IDExLjQwM0E2LjY4IDYuNjggMCAwIDEgOSAxNS42OSIvPiYjeGE7PC9zdmc+;" vertex="1" parent="1">
                    <mxGeometry x="820" y="530" width="60" height="60" as="geometry"/>
                </mxCell>
                <mxCell id="136" value="&lt;font color=&quot;#009900&quot;&gt;Yes&lt;/font&gt;" style="text;html=1;strokeColor=none;fillColor=none;align=center;verticalAlign=middle;whiteSpace=wrap;rounded=0;fontSize=14;" vertex="1" parent="1">
                    <mxGeometry x="690" y="530" width="60" height="30" as="geometry"/>
                </mxCell>
                <mxCell id="137" value="BigQuery" style="text;html=1;strokeColor=none;fillColor=none;align=center;verticalAlign=middle;whiteSpace=wrap;rounded=0;" vertex="1" parent="1">
                    <mxGeometry x="820" y="590" width="60" height="30" as="geometry"/>
                </mxCell>
                <mxCell id="141" style="edgeStyle=none;html=1;exitX=0.5;exitY=1;exitDx=0;exitDy=0;strokeColor=#009900;fillColor=#f8cecc;" edge="1" parent="1" source="139">
                    <mxGeometry relative="1" as="geometry">
                        <mxPoint x="575" y="840" as="targetPoint"/>
                    </mxGeometry>
                </mxCell>
                <mxCell id="139" value="Do you need ACID (Atomicity, Consisgency, Isolation, Durability) properties?" style="rounded=0;whiteSpace=wrap;html=1;fontSize=14;strokeColor=none;" vertex="1" parent="1">
                    <mxGeometry x="480" y="680" width="190" height="70" as="geometry"/>
                </mxCell>
                <mxCell id="140" value="&lt;font color=&quot;#ff1212&quot;&gt;No&lt;/font&gt;" style="text;html=1;strokeColor=none;fillColor=none;align=center;verticalAlign=middle;whiteSpace=wrap;rounded=0;fontSize=14;" vertex="1" parent="1">
                    <mxGeometry x="510" y="620" width="60" height="30" as="geometry"/>
                </mxCell>
                <mxCell id="144" style="edgeStyle=none;html=1;exitX=0;exitY=0.5;exitDx=0;exitDy=0;strokeColor=#009900;" edge="1" parent="1" source="142">
                    <mxGeometry relative="1" as="geometry">
                        <mxPoint x="420" y="870" as="targetPoint"/>
                    </mxGeometry>
                </mxCell>
                <mxCell id="148" style="edgeStyle=none;html=1;exitX=1;exitY=0.5;exitDx=0;exitDy=0;strokeColor=#FF1212;" edge="1" parent="1" source="142">
                    <mxGeometry relative="1" as="geometry">
                        <mxPoint x="740" y="870" as="targetPoint"/>
                    </mxGeometry>
                </mxCell>
                <mxCell id="142" value="Do you need 99.9999% availability?" style="rounded=0;whiteSpace=wrap;html=1;fontSize=14;strokeColor=none;" vertex="1" parent="1">
                    <mxGeometry x="515" y="840" width="120" height="60" as="geometry"/>
                </mxCell>
                <mxCell id="143" value="&lt;font color=&quot;#009900&quot;&gt;Yes&lt;/font&gt;" style="text;html=1;strokeColor=none;fillColor=none;align=center;verticalAlign=middle;whiteSpace=wrap;rounded=0;fontSize=14;" vertex="1" parent="1">
                    <mxGeometry x="515" y="780" width="60" height="30" as="geometry"/>
                </mxCell>
                <mxCell id="145" value="&lt;font color=&quot;#009900&quot;&gt;Yes&lt;/font&gt;" style="text;html=1;strokeColor=none;fillColor=none;align=center;verticalAlign=middle;whiteSpace=wrap;rounded=0;fontSize=14;" vertex="1" parent="1">
                    <mxGeometry x="450" y="840" width="60" height="30" as="geometry"/>
                </mxCell>
                <mxCell id="146" value="" style="editableCssRules=.*;shape=image;verticalLabelPosition=bottom;labelBackgroundColor=#ffffff;verticalAlign=top;aspect=fixed;imageAspect=0;image=data:image/svg+xml,PHN2ZyB4bWxucz0iaHR0cDovL3d3dy53My5vcmcvMjAwMC9zdmciIHhtbG5zOnY9Imh0dHBzOi8vdmVjdGEuaW8vbmFubyIgd2lkdGg9IjIwIiBoZWlnaHQ9IjE4LjQ1OTk5OTA4NDQ3MjY1NiIgZmlsbC1ydWxlPSJldmVub2RkIiB2aWV3Qm94PSIwIDAgMjAgMTguNDU5OTk5MDg0NDcyNjU2Ij4mI3hhOwk8c3R5bGUgdHlwZT0idGV4dC9jc3MiPiYjeGE7CQkuc3Qwe2ZpbGw6IzQyODVmNDt9JiN4YTsJCS5zdDF7ZmlsbDojNjY5ZGY2O30mI3hhOwkJLnN0MntmaWxsOiNhZWNiZmE7fSYjeGE7CTwvc3R5bGU+JiN4YTsJPHBhdGggY2xhc3M9InN0MSIgZD0iTTguNjYgNS42M3Y0LjM2bC0zLjc3IDIuMTggMS4zNCAyLjMyTDEwIDEyLjMxbDMuNzcgMi4xOCAxLjM0LTIuMzItMy43Ny0yLjE4VjUuNjN6Ii8+JiN4YTsJPHBhdGggY2xhc3M9InN0MCIgZD0iTTEwIDUuNjN2NS4xMmwtNC40NCAyLjU4LjY3IDEuMTZMMTAgMTIuMzFsMy43NyAyLjE4IDEuMzQtMi4zMi0zLjc3LTIuMThWNS42M3oiLz4mI3hhOwk8cGF0aCBjbGFzcz0ic3QyIiBkPSJNNi42MiA0Ljk1TDEwIDYuNzhWMy42N2wtMS4zNS0uNjJWMEw2LjYyIDEuMjJ6Ii8+JiN4YTsJPHBhdGggY2xhc3M9InN0MSIgZD0iTTEwIDYuNzhsMy4zOC0xLjgzVjEuMjJMMTEuMzUgMHYzLjA1TDEwIDMuNjd6bTYuMTQgNy41M2wtLjA4IDEuMzkgMi43IDEuNTMtMi4xOCAxLjItMy4yNC0xLjg3LjExLTMuODMgMy4yNy0yTDIwIDEyLjYxdjIuNDlsLTIuNjktMS41NXptLTEyLjI4IDBsLTEuMTctLjc2TDAgMTUuMXYtMi40OWwzLjIzLTEuODcgMy4yNyAyIC4xMSAzLjgzLTMuMTkgMS44OS0yLjE4LTEuMjMgMi43LTEuNTZ6Ii8+JiN4YTsJPHBhdGggY2xhc3M9InN0MiIgZD0iTTE2LjcyIDEwLjc1bC0zLjI3IDIuMDEgMi42OSAxLjU1IDEuMTYtLjc2TDIwIDE1LjFsLS4wNS0yLjQ5ek0zLjg2IDE0LjMxbDIuNjktMS41NS0zLjI3LTIuMDEtMy4yMyAxLjg2TDAgMTUuMWwyLjctMS41NXoiLz4mI3hhOzwvc3ZnPg==;" vertex="1" parent="1">
                    <mxGeometry x="330" y="837" width="70" height="63" as="geometry"/>
                </mxCell>
                <mxCell id="147" value="Cloud Spanner" style="text;html=1;strokeColor=none;fillColor=none;align=center;verticalAlign=middle;whiteSpace=wrap;rounded=0;" vertex="1" parent="1">
                    <mxGeometry x="320" y="910" width="90" height="30" as="geometry"/>
                </mxCell>
                <mxCell id="149" value="&lt;font color=&quot;#ff1212&quot;&gt;No&lt;/font&gt;" style="text;html=1;strokeColor=none;fillColor=none;align=center;verticalAlign=middle;whiteSpace=wrap;rounded=0;fontSize=14;" vertex="1" parent="1">
                    <mxGeometry x="660" y="840" width="60" height="30" as="geometry"/>
                </mxCell>
                <mxCell id="150" value="" style="editableCssRules=.*;shape=image;verticalLabelPosition=bottom;labelBackgroundColor=#ffffff;verticalAlign=top;aspect=fixed;imageAspect=0;image=data:image/svg+xml,PHN2ZyB4bWxucz0iaHR0cDovL3d3dy53My5vcmcvMjAwMC9zdmciIHhtbG5zOnY9Imh0dHBzOi8vdmVjdGEuaW8vbmFubyIgd2lkdGg9IjE0LjY1OTk5OTg0NzQxMjExIiBoZWlnaHQ9IjIwIiB2aWV3Qm94PSIwIDAgMTQuNjU5OTk5ODQ3NDEyMTEgMjAiPiYjeGE7CTxzdHlsZSB0eXBlPSJ0ZXh0L2NzcyI+JiN4YTsJLnN0MHtmaWxsOiM0Mjg1ZjQ7fSYjeGE7CS5zdDF7ZmlsbDojNjY5ZGY2O30mI3hhOwkuc3Qye2ZpbGw6I2FlY2JmYTt9JiN4YTsJPC9zdHlsZT4mI3hhOwk8c3R5bGU+JiN4YTsJCS5Ee2ZpbGwtcnVsZTpldmVub2RkfSYjeGE7CTwvc3R5bGU+JiN4YTsJPHBhdGggZD0iTTcuMzMgMTUuMzV2LTMuMDFMMCA4LjQ0djMuMDF6bTAgNC42NXYtMy4wMUwwIDEzLjA5djMuMDF6IiBjbGFzcz0ic3QyIEQiLz4mI3hhOwk8cGF0aCBkPSJNMTQuNjYgOC40NGwtNy4zMyAzLjl2My4wMWw3LjMzLTMuOXptMCA0LjY1bC03LjMzIDMuOVYyMGw3LjMzLTMuOXoiIGNsYXNzPSJzdDEgRCIvPiYjeGE7CTxwYXRoIGQ9Ik03LjMzIDB2My4wMWw3LjMzIDMuOVYzLjl6IiBjbGFzcz0ic3QwIEQiLz4mI3hhOwk8cGF0aCBkPSJNMCA2LjkxbDcuMzMtMy45VjBMMCAzLjl6IiBjbGFzcz0iRCBzdDEiLz4mI3hhOwk8cGF0aCBkPSJNNy4zMyAxMC43OVY3Ljc3TDAgMy44N3YzLjAyeiIgY2xhc3M9IkQgc3QyIi8+JiN4YTsJPHBhdGggZD0iTTE0LjY2IDMuODdsLTcuMzMgMy45djMuMDJsNy4zMy0zLjl6IiBjbGFzcz0iRCBzdDEiLz4mI3hhOzwvc3ZnPg==;" vertex="1" parent="1">
                    <mxGeometry x="760" y="833.5" width="52.5" height="70" as="geometry"/>
                </mxCell>
                <mxCell id="151" value="Cloud SQL" style="text;html=1;strokeColor=none;fillColor=none;align=center;verticalAlign=middle;whiteSpace=wrap;rounded=0;" vertex="1" parent="1">
                    <mxGeometry x="741.25" y="910" width="90" height="30" as="geometry"/>
                </mxCell>
            </root>
        </mxGraphModel>
    </diagram>
</mxfile>